<?xml version="1.0" encoding="utf-8"?>
<svg viewBox="0 0 500 500" xmlns="http://www.w3.org/2000/svg" xmlnsBx="https://boxy-svg.com">
  <path d="M 419.145 49.535 H 528.264 A 9.234 9.234 0 0 1 537.498 58.769 V 164.069 A 9.234 9.234 0 0 1 528.264 173.303 H 419.145 A 9.234 9.234 0 0 1 409.911 164.069 V 58.769 A 9.234 9.234 0 0 1 419.145 49.535 Z M 421.333 64.138 V 158.7 A 3.523 3.523 0 0 0 424.856 162.223 H 522.553 A 3.523 3.523 0 0 0 526.076 158.7 V 64.138 A 3.523 3.523 0 0 0 522.553 60.615 H 424.856 A 3.523 3.523 0 0 0 421.333 64.138 Z" style="fill: rgb(146, 207, 62);" transform="matrix(0.0024830000475049023, 0.9999969601631166, -0.9995610713958741, 0.17812301218509677, 472.04472231998176, -384.6640434463035)" bxShape="frame 409.911 49.535 127.587 123.768 11.422 11.08 9.234 9.234 9.234 9.234 1@2f482d0a"/>
  <path d="M 460.221 157.095 H 560.798 A 9.234 9.234 0 0 1 570.032 166.329 V 263.343 A 9.234 9.234 0 0 1 560.798 272.577 H 460.221 A 9.234 9.234 0 0 1 450.987 263.343 V 166.329 A 9.234 9.234 0 0 1 460.221 157.095 Z M 462.409 171.698 V 257.974 A 3.523 3.523 0 0 0 465.932 261.497 H 555.087 A 3.523 3.523 0 0 0 558.61 257.974 V 171.698 A 3.523 3.523 0 0 0 555.087 168.175 H 465.932 A 3.523 3.523 0 0 0 462.409 171.698 Z" style="paint-order: fill; fill-rule: nonzero; fill: rgb(239, 42, 100);" transform="matrix(0.0024830000475049023, 0.9999969601631166, -0.9995610713958741, 0.17812301218509677, 299.186257695742, -220.10008895695458)" bxShape="frame 450.987 157.095 119.045 115.482 11.422 11.08 9.234 9.234 9.234 9.234 1@53f9956c"/>
  <rect x="72.812" y="77.187" width="322.5" height="215.625" style="fill: rgb(246, 246, 243);" rx="18.125" ry="18.125" transform="matrix(0.9844910502433778, -0.17543701827526095, 0.0025220001116394997, 1.01530396938324, -3.991900086161479, 69.82949274270212)"/>
  <rect x="77.188" y="80.625" width="313.75" height="208.125" style="fill: rgb(39, 43, 41);" rx="18.125" ry="18.125" transform="matrix(0.9844910502433778, -0.17543701827526095, 0.0025220001116394997, 1.01530396938324, -3.991900086161479, 69.82949274270212)"/>
  <rect x="90.313" y="92.187" width="288.75" height="184.375" style="fill: rgb(246, 246, 243);" rx="15" ry="15" transform="matrix(0.9844910502433778, -0.17543701827526095, 0.0025220001116394997, 1.01530396938324, -3.991900086161479, 69.82949274270212)"/>
  <path d="M 224.555 154.316 C 234.807 153.332 244.872 153.965 254.658 155.31 C 268.322 157.429 281.717 161.936 291.108 171.205 C 297.791 177.677 301.713 187.055 300.94 197.241 C 300.426 207.8 295.32 218.268 289.345 227.792 C 286.011 232.864 282.188 237.691 277.864 242.066 C 272.5 247.339 266.583 252.019 260.487 256.372 C 259.789 256.864 259.011 257.324 258.196 257.347 C 255.962 257.639 254.465 255.337 255.139 253.268 C 256.21 251.687 258.008 250.762 259.48 249.595 C 265.568 245.421 271.311 240.616 276.214 235.066 C 282.729 227.473 288.342 219.024 291.703 209.955 C 294.39 202.855 295.474 195.204 293.484 188.582 C 291.181 179.873 284.614 173.461 276.944 169.337 C 270.714 165.992 263.795 163.722 256.554 162.414 C 242.108 159.794 226.692 159.448 211.282 162.993 C 201.489 165.167 191.778 168.95 182.784 174.286 C 173.254 180.156 164.502 188.135 159.066 197.888 C 155.287 205.106 153.279 213.109 154.08 220.51 C 154.931 229.059 159.333 236.374 165.275 241.801 C 168.431 244.718 172.038 247.175 176.069 248.952 C 177.352 249.581 178.839 250.119 179.511 251.436 C 180.067 252.986 178.888 255.109 177.157 255.775 C 175.906 256.13 174.71 255.779 173.698 255.287 C 162.064 250.434 152.83 241.095 148.926 229.05 C 146.482 220.733 147.187 211.19 150.463 202.19 C 154.318 191.161 162.715 181.523 172.235 174.181 C 179.157 168.84 186.88 164.793 194.739 161.489 C 204.501 157.748 214.584 155.351 224.555 154.316 Z" opacity="1.00" stroke-width="0.25" style="fill: rgb(239, 42, 100); transform-origin: 224.252px 205.605px;" transform="matrix(0.984491109848, -0.175437048078, 0.175437048078, 0.984491109848, 0.000011829867, 0.000004659297)"/>
  <path d="M 186.237 195.463 C 187.986 193.986 190.778 194.647 191.091 196.652 C 190.724 199.701 190.109 202.759 189.537 205.812 C 192.737 205.963 195.985 205.89 199.214 205.903 C 199.833 202.923 200.072 199.929 200.832 196.953 C 201.419 194.907 204.113 194.018 205.569 195.075 C 206.558 195.64 206.544 196.971 206.315 198.088 C 205.099 205.22 203.954 212.356 202.584 219.484 C 201.873 222.47 197.043 222.912 196.853 219.994 C 196.872 217.397 197.633 214.722 198.026 212.097 C 194.819 212.192 191.646 212.097 188.442 212.179 C 188.013 214.621 187.651 217.069 187.09 219.511 C 186.461 221.691 183.32 222.866 181.874 221.444 C 180.893 220.723 181.115 219.306 181.326 218.13 C 182.457 211.746 183.581 205.366 184.675 198.985 C 184.911 197.773 185.037 196.324 186.237 195.463 Z" opacity="1.00" stroke-width="0.25" style="fill: rgb(239, 42, 100); transform-origin: 193.794px 208.346px;" transform="matrix(0.984491109848, -0.175437048078, 0.175437048078, 0.984491109848, 0.00001717563, 0.00001486077)"/>
  <path d="M 245.089 185.409 C 246.408 183.659 249.36 183.686 250.052 185.432 C 250.42 186.193 250.112 187.136 250.002 187.997 C 249.55 190.417 249.207 192.837 248.764 195.257 C 251.794 195.439 254.893 195.307 257.947 195.385 C 258.64 192.427 258.919 189.46 259.625 186.507 C 260.27 183.919 264.278 183.363 265.194 185.413 C 265.588 186.161 265.315 187.118 265.203 187.984 C 263.983 194.824 262.782 201.664 261.577 208.5 C 261.364 209.635 260.466 210.747 259.381 211.271 C 257.741 211.791 255.618 211.157 255.626 209.352 C 255.814 206.828 256.395 204.276 256.795 201.737 C 253.815 201.5 250.751 201.66 247.737 201.596 C 247.179 204.203 246.906 206.819 246.28 209.425 C 245.182 211.754 241.45 212.224 240.691 210.059 C 240.25 209.352 240.559 208.4 240.647 207.561 C 241.768 201.045 242.923 194.523 244.154 188.006 C 244.358 187.131 244.443 186.179 245.089 185.409 Z" opacity="1.00" stroke-width="0.25" style="fill: rgb(239, 42, 100); transform-origin: 252.93px 197.781px;" transform="matrix(0.984491109848, -0.175437048078, 0.175437048078, 0.984491109848, 0.000015796098, 0.0000159535)"/>
  <path d="M 222.902 213.022 C 227.288 211.272 231.893 213.723 232.665 217.811 C 233.252 220.851 232.19 224.15 231.743 227.322 C 231.131 230.389 230.996 233.803 228.638 236.459 C 224.819 241.317 216.639 241.103 214.671 236.222 C 213.967 234.655 214.042 232.768 214.407 230.954 C 215.045 227.473 215.567 223.986 216.268 220.509 C 216.882 217.228 219.648 214.161 222.902 213.022 Z" opacity="1.00" stroke-width="0.25" style="fill: rgb(239, 42, 100); transform-origin: 223.486px 226.222px;" transform="matrix(0.984491109848, -0.175437048078, 0.175437048078, 0.984491109848, 0.000022070991, 0.000024751075)"/>
  <path d="M 213.767 263.625 C 214.788 263.082 215.874 263.228 216.904 263.201 C 222.376 263.183 227.837 263.224 233.303 263.237 C 234.819 263.251 236.082 264.568 235.685 266.154 C 235.392 267.876 233.555 269.408 231.847 269.271 C 225.942 269.262 220.027 269.289 214.141 269.203 C 211.49 269.116 211.206 264.869 213.767 263.625 Z" opacity="1.00" stroke-width="0.25" style="fill: rgb(239, 42, 100); transform-origin: 223.875px 266.238px;" transform="matrix(0.984491109848, -0.175437048078, 0.175437048078, 0.984491109848, 0.000016657056, 0.000005721668)"/>
  <path d="M 223.041 217.117 C 226.138 215.882 229.39 217.613 229.936 220.499 C 230.35 222.647 229.6 224.976 229.285 227.216 C 228.852 229.382 228.757 231.792 227.092 233.668 C 224.394 237.1 218.618 236.948 217.228 233.501 C 216.731 232.394 216.784 231.062 217.042 229.781 C 217.492 227.322 217.861 224.861 218.356 222.405 C 218.79 220.087 220.743 217.922 223.041 217.117 Z" opacity="1.00" stroke-width="0.25" style="fill: rgb(246, 246, 243); transform-origin: 223.454px 226.439px;" transform="matrix(0.984491109848, -0.175437048078, 0.175437048078, 0.984491109848, 0.000014521691, 0.000009261841)"/>
  <text style="fill: rgb(39, 43, 41); font-family: Arial, sans-serif; font-size: 69px; font-weight: 700; white-space: pre;" x="373.744" y="443.691" transform="matrix(1.0000000000000002, 0, 0, 1.0000000000000002, 5.684341886080802e-14, 0)">&lt;/&gt;</text>
  <path style="fill: rgba(146, 207, 62, 0.11);" d="M 117.493 313.066 L 117.838 156.032 L 305.038 122.256 L 396.868 396.191 L 117.493 313.066 Z" transform="matrix(1.0000000000000002, 0, 0, 1.0000000000000002, 5.684341886080802e-14, 0)"/>
  <path style="fill: rgba(146, 207, 62, 0.05);" d="M 117.53 313.069 L 116.27 155.292 L 397.455 396.339 L 397.317 396.336 L 117.53 313.069 Z" transform="matrix(1.0000000000000002, 0, 0, 1.0000000000000002, 5.684341886080802e-14, 0)"/>
</svg>