<?xml version="1.0" encoding="utf-8"?>
<svg viewBox="0 0 512 512" xmlns="http://www.w3.org/2000/svg">
  <path d="M 0.00 0.00 L 512.00 0.00 L 512.00 512.00 L 0.00 512.00 L 0.00 0.00 Z" opacity="1.00" stroke-width="0.25" stroke="transparent" fill="transparent" transform="matrix(1, 0, 0, 1, -5.684341886080802e-14, 0)"/>
  <path d="M 53.02 16.69 C 106.04 16.19 159.06 16.59 212.08 16.42 C 268.39 16.17 324.69 16.44 381.00 16.38 C 401.33 16.27 421.67 16.49 442.00 16.64 C 448.78 16.74 455.72 19.78 459.73 25.38 C 463.13 30.19 463.45 36.33 463.26 42.02 C 463.40 74.69 462.72 107.35 462.19 140.01 C 460.19 211.65 461.16 283.34 462.85 354.97 C 463.25 361.43 460.31 368.13 454.80 371.67 C 450.15 374.75 444.37 375.14 438.96 375.17 C 350.76 375.25 262.57 375.14 174.38 375.12 C 174.29 394.08 174.65 413.04 174.33 432.00 C 173.80 438.78 162.60 439.56 160.87 433.05 C 160.44 413.75 160.77 394.41 160.76 375.10 C 127.51 375.13 94.26 375.25 61.02 375.16 C 56.04 375.15 51.01 375.29 46.11 374.30 C 37.43 372.29 30.79 363.92 30.98 354.97 C 29.48 279.31 29.94 203.64 29.84 127.96 C 29.90 99.98 30.69 72.01 30.93 44.03 C 31.36 38.71 30.47 33.04 33.03 28.12 C 36.76 20.84 44.96 16.54 53.02 16.69 Z" opacity="1.00" stroke="#232128" stroke-width="0.25" style="fill: rgb(255, 255, 255);" transform="matrix(1, 0, 0, 1, -5.684341886080802e-14, 0)"/>
  <path d="M 45.44 37.90 C 45.25 34.82 47.51 30.95 50.96 31.24 C 118.62 30.20 186.29 30.73 253.96 30.64 C 316.66 30.61 379.37 30.53 442.07 30.80 C 445.88 30.64 449.59 34.08 449.12 38.02 C 448.50 64.34 448.89 90.69 448.30 117.02 C 447.47 149.02 446.52 181.02 446.62 213.04 C 446.57 235.68 446.63 258.31 446.84 280.95 C 447.69 306.35 447.64 331.79 449.43 357.15 C 447.99 359.95 445.13 361.17 442.06 360.71 C 312.01 361.05 181.96 360.66 51.92 360.85 C 49.28 360.96 46.15 359.40 45.45 356.76 C 44.54 305.85 44.72 254.91 44.65 203.99 C 44.76 160.66 44.17 117.32 45.16 74.01 C 45.16 61.97 45.51 49.94 45.44 37.90 Z" opacity="1.00" stroke-width="0.25" style="stroke: rgba(255, 255, 255, 0); fill: rgb(39, 43, 41);" transform="matrix(1, 0, 0, 1, -5.684341886080802e-14, 0)"/>
  <path d="M 238.53 42.81 C 260.65 40.65 282.98 42.04 304.97 44.99 C 335.77 49.64 366.90 59.53 391.08 79.87 C 408.24 94.07 420.46 114.65 422.69 137.00 C 425.63 160.17 418.46 183.14 409.02 204.04 C 403.66 215.17 397.13 225.76 389.33 235.36 C 379.59 246.93 368.41 257.20 356.71 266.75 C 355.37 267.83 353.84 268.84 352.06 268.89 C 347.27 269.53 343.10 264.48 343.78 259.94 C 345.52 256.47 349.11 254.44 351.89 251.88 C 363.64 242.72 374.39 232.18 383.01 220.00 C 394.38 203.34 403.44 184.80 407.32 164.90 C 410.48 149.32 409.91 132.53 402.99 118.00 C 394.58 98.89 377.70 84.82 359.28 75.77 C 344.32 68.43 328.26 63.45 311.87 60.58 C 279.16 54.83 245.20 54.07 212.75 61.85 C 192.10 66.62 172.25 74.92 154.57 86.63 C 135.92 99.51 119.79 117.02 111.62 138.42 C 106.11 154.26 104.79 171.82 109.40 188.06 C 114.56 206.82 127.04 222.87 142.17 234.78 C 150.22 241.18 159.08 246.57 168.61 250.47 C 171.67 251.85 175.14 253.03 177.12 255.92 C 178.94 259.32 177.17 263.98 173.63 265.44 C 171.02 266.22 168.26 265.45 165.85 264.37 C 138.45 253.72 114.59 233.23 101.38 206.80 C 92.81 188.55 90.68 167.61 94.40 147.86 C 98.61 123.66 113.32 102.51 131.38 86.40 C 144.51 74.68 159.90 65.80 175.87 58.55 C 195.85 50.34 217.05 45.08 238.53 42.81 Z" opacity="1.00" stroke="#232128" stroke-width="0.25" style="fill: rgb(255, 255, 255);" transform="matrix(1, 0, 0, 1, -5.684341886080802e-14, 0)"/>
  <path d="M 168.21 121.28 C 171.48 118.04 177.86 119.49 179.32 123.89 C 179.69 130.58 179.52 137.29 179.44 143.99 C 186.52 144.32 193.62 144.16 200.71 144.19 C 200.92 137.65 200.29 131.08 200.81 124.55 C 201.31 120.06 206.88 118.11 210.48 120.43 C 212.87 121.67 213.35 124.59 213.28 127.04 C 213.36 142.69 213.60 158.35 213.34 173.99 C 212.93 180.54 202.50 181.51 200.96 175.11 C 200.00 169.41 200.64 163.54 200.49 157.78 C 193.49 157.99 186.49 157.78 179.49 157.96 C 179.49 163.32 179.64 168.69 179.35 174.05 C 178.81 178.83 172.37 181.41 168.65 178.29 C 166.22 176.71 166.16 173.60 166.17 171.02 C 166.19 157.01 166.20 143.01 166.14 129.01 C 166.19 126.35 165.91 123.17 168.21 121.28 Z" opacity="1.00" stroke="#232128" stroke-width="0.25" style="fill: rgb(255, 255, 255);" transform="matrix(1, 0, 0, 1, -5.684341886080802e-14, 0)"/>
  <path d="M 299.59 122.34 C 301.81 118.50 308.30 118.56 310.49 122.39 C 311.59 124.06 311.28 126.13 311.37 128.02 C 311.31 133.33 311.49 138.64 311.45 143.95 C 318.17 144.35 324.92 144.06 331.65 144.23 C 332.03 137.74 331.50 131.23 331.91 124.75 C 332.33 119.07 340.91 117.85 343.71 122.35 C 344.86 123.99 344.63 126.09 344.72 127.99 C 344.68 143.00 344.68 158.01 344.67 173.01 C 344.64 175.50 343.10 177.94 340.92 179.09 C 337.52 180.23 332.62 178.84 331.94 174.88 C 331.38 169.34 331.67 163.74 331.57 158.17 C 324.94 157.65 318.28 158.00 311.64 157.86 C 311.42 163.58 311.83 169.32 311.46 175.04 C 309.95 180.15 301.94 181.18 299.44 176.43 C 298.20 174.88 298.51 172.79 298.38 170.95 C 298.33 156.65 298.35 142.34 298.54 128.04 C 298.65 126.12 298.47 124.03 299.59 122.34 Z" opacity="1.00" stroke="#232128" stroke-width="0.25" style="fill: rgb(255, 255, 255);" transform="matrix(1, 0, 0, 1, -5.684341886080802e-14, 0)"/>
  <path d="M 249.44 170.63 C 258.39 166.79 269.44 172.17 272.71 181.14 C 275.17 187.81 274.11 195.05 274.35 202.01 C 274.19 208.74 275.21 216.23 271.06 222.06 C 264.55 232.72 246.52 232.25 240.32 221.54 C 238.17 218.10 237.61 213.96 237.71 209.98 C 237.77 202.34 237.57 194.69 237.77 187.06 C 237.85 179.86 242.74 173.13 249.44 170.63 Z" opacity="1.00" stroke="#232128" stroke-width="0.25" style="fill: rgb(255, 255, 255);" transform="matrix(1, 0, 0, 1, -5.684341886080802e-14, 0)"/>
  <path d="M 254.12 182.23 C 257.21 180.95 261.84 183.21 261.62 186.88 C 261.73 195.28 261.40 203.69 261.41 212.09 C 261.71 216.35 255.76 219.14 252.58 216.41 C 250.91 215.15 250.23 213.02 250.33 211.00 C 250.32 203.31 250.31 195.63 250.41 187.94 C 250.22 185.48 251.98 183.23 254.12 182.23 Z" opacity="1.00" stroke="#ffffff" stroke-width="0.25" style="fill: rgb(39, 43, 41);" transform="matrix(1, 0, 0, 1, -5.684341886080802e-14, 0)"/>
  <path d="M 233.27 280.46 C 235.30 279.27 237.74 279.59 239.99 279.53 C 251.99 279.49 263.99 279.58 275.99 279.61 C 279.32 279.64 282.60 282.53 282.34 286.01 C 282.36 289.79 278.92 293.15 275.12 292.85 C 262.16 292.83 249.19 292.89 236.24 292.70 C 230.39 292.51 228.13 283.19 233.27 280.46 Z" opacity="1.00" stroke="#232128" stroke-width="0.25" style="fill: rgb(255, 255, 255);" transform="matrix(1, 0, 0, 1, -5.684341886080802e-14, 0)"/>
  <path d="M 89.22 325.14 C 90.77 324.78 92.38 324.81 93.96 324.80 C 202.30 324.70 310.64 324.81 418.97 324.78 C 421.69 324.83 425.12 324.53 426.97 326.97 C 429.12 329.96 428.99 334.70 426.10 337.18 C 423.74 339.60 420.04 339.00 416.99 339.13 C 345.33 338.77 273.67 338.83 202.02 338.88 C 164.74 338.76 127.48 339.22 90.22 338.72 C 83.29 338.42 82.23 326.43 89.22 325.14 Z" opacity="1.00" stroke="#232128" stroke-width="0.25" style="fill: rgb(255, 255, 255);" transform="matrix(1, 0, 0, 1, -5.684341886080802e-14, 0)"/>
  <path d="M 350.33 391.48 C 353.11 390.75 356.79 390.76 358.60 393.40 C 359.72 394.65 359.48 396.43 359.57 397.99 C 359.45 412.67 359.76 427.36 359.63 442.05 C 359.57 446.81 353.00 449.67 349.38 446.60 C 347.54 445.38 346.74 443.15 346.82 441.02 C 346.68 427.02 346.74 413.02 346.78 399.03 C 346.68 396.19 347.40 392.68 350.33 391.48 Z" opacity="1.00" stroke="#232128" stroke-width="0.25" style="fill: rgb(255, 255, 255);" transform="matrix(1, 0, 0, 1, -5.684341886080802e-14, 0)"/>
  <path d="M 249.43 398.63 C 253.27 396.64 258.94 399.27 258.65 403.89 C 258.89 423.93 258.81 443.97 258.86 464.01 C 259.12 472.27 259.52 480.58 258.73 488.82 C 258.75 493.18 253.32 496.73 249.49 494.38 C 246.71 493.10 245.48 489.87 245.64 486.96 C 245.50 459.98 245.57 433.00 245.40 406.02 C 245.17 403.02 246.55 399.84 249.43 398.63 Z" opacity="1.00" stroke="#232128" stroke-width="0.25" style="fill: rgb(255, 255, 255);" transform="matrix(1, 0, 0, 1, -5.684341886080802e-14, 0)"/>
  <path d="M 162.21 450.19 C 165.89 448.42 171.79 450.40 171.61 455.09 C 171.58 462.76 171.75 470.43 171.62 478.11 C 171.86 482.33 166.91 485.55 163.07 483.83 C 160.17 483.01 158.27 480.06 158.39 477.11 C 158.37 469.74 158.19 462.37 158.20 455.00 C 158.04 452.60 160.24 451.01 162.21 450.19 Z" opacity="1.00" stroke="#232128" stroke-width="0.25" style="fill: rgb(255, 255, 255);" transform="matrix(1, 0, 0, 1, -5.684341886080802e-14, 0)"/>
</svg>